<?xml version="1.0" encoding="UTF-8"?>
<svg xmlns="http://www.w3.org/2000/svg" xmlns:xlink="http://www.w3.org/1999/xlink" width="px" height="px" viewBox="0 0 1799 1874" version="1.1">
<g id="surface1">
<path style=" stroke:none;fill-rule:nonzero;fill:rgb(100%,73.333333%,21.176471%);fill-opacity:1;" d="M 1395.851562 264.019531 C 1400.207031 253.304688 1391.339844 242.785156 1391.339844 242.785156 C 1391.339844 242.785156 1321.707031 124.367188 1075.324219 98.09375 C 943.40625 84.042969 763.8125 110.71875 637.933594 178.578125 C 409.851562 301.425781 375.699219 503.792969 375.699219 503.792969 C 374.414062 508.75 372.230469 523.835938 377.359375 530.269531 C 382.582031 536.816406 390.179688 536.699219 399.613281 533.515625 C 480.109375 506.335938 720.027344 426.804688 871.429688 386.640625 C 1086.894531 329.539062 1263.894531 294.792969 1377.503906 275.441406 C 1385.566406 274.074219 1392.808594 271.433594 1395.851562 264.019531 "/>
<path style=" stroke:none;fill-rule:nonzero;fill:rgb(0%,40%,70.196078%);fill-opacity:1;" d="M 1641.882812 1217.78125 C 1512.921875 1507.292969 1265.503906 1708.773438 941.246094 1713.367188 C 705.121094 1716.714844 496.738281 1635.851562 346.246094 1494.804688 L 255.226562 1533.734375 L 255.378906 1392.863281 C 156.210938 1259.15625 98.714844 1090.027344 98.714844 897.894531 C 98.714844 405.796875 475.777344 17.890625 1001.648438 17.890625 C 1087.480469 17.890625 1165.058594 31.242188 1223.546875 44.484375 C 1133.433594 15.660156 1043.886719 0.0390625 944.210938 0.0390625 C 379.828125 0.0390625 0.0195312 457.492188 0 929.25 C 0 1443.34375 403.457031 1873.960938 933.027344 1873.960938 C 1438.835938 1873.960938 1711.730469 1517.488281 1799 1303.105469 Z M 1641.882812 1217.78125 "/>
<path style=" stroke:none;fill-rule:nonzero;fill:rgb(92.54902%,11.372549%,13.72549%);fill-opacity:1;" d="M 1510.96875 1116.070312 C 1585.1875 1107.65625 1636.535156 1077.835938 1664.71875 1050.179688 C 1690.402344 1024.953125 1696.394531 990.21875 1696.433594 964.417969 C 1697.46875 926.507812 1696.433594 806.871094 1696.433594 806.871094 L 1500.027344 849.351562 C 1500.027344 849.351562 1500.011719 864.148438 1499.953125 895.214844 C 1500.3125 925.554688 1514.941406 942.070312 1546.753906 936.21875 C 1556.726562 934.585938 1572.074219 929.695312 1572.074219 929.695312 L 1572.339844 967.183594 C 1572.167969 966.113281 1575.242188 988.089844 1525.746094 997.871094 C 1460.972656 1008.035156 1431.535156 968.195312 1430.769531 897.792969 C 1432.046875 822.34375 1474.722656 778.828125 1526.496094 766.910156 C 1584.746094 753.558594 1617.714844 767.433594 1637.089844 770.386719 C 1702.140625 780.125 1720.589844 682.628906 1661.414062 659.761719 C 1617.667969 642.144531 1560.914062 638.964844 1506.808594 649.761719 C 1434.566406 664.164062 1292.5 724.605469 1292.105469 920.996094 C 1292.492188 1077.054688 1407.589844 1127.910156 1510.972656 1116.070312 M 872.519531 1283.332031 C 872.519531 1283.332031 932.78125 1262.667969 937.992188 1260.839844 C 986.425781 1244.132812 1004.074219 1215.34375 1003.859375 1165.515625 C 1003.246094 1111.414062 1003.160156 1005.914062 1003.160156 1005.914062 L 1143.28125 1167.308594 C 1166.046875 1190.804688 1194.570312 1192.8125 1220.691406 1185.152344 C 1247.691406 1177.25 1270.175781 1152.570312 1270.855469 1117.765625 C 1271.078125 1001.21875 1270.796875 716.777344 1270.796875 716.777344 C 1270.796875 716.777344 1234.585938 724.457031 1204.53125 732.976562 C 1169.949219 742.773438 1143.339844 764.816406 1143.339844 823 C 1143.339844 843.601562 1143.261719 961.816406 1143.261719 961.816406 C 1143.261719 961.816406 1064.398438 862.949219 1012.832031 811.382812 C 985.257812 783.851562 939.636719 800.289062 939.636719 800.289062 L 872.402344 820.625 Z M 830.09375 831.050781 C 830.09375 831.050781 787.890625 843.421875 753.550781 855.816406 C 708.957031 871.933594 683.253906 897.722656 683.253906 965.199219 C 683.253906 1027.171875 683.144531 1349.71875 683.144531 1349.71875 C 683.144531 1349.71875 722.207031 1336.367188 758.628906 1322.632812 C 810.40625 1303.121094 829.941406 1276.496094 829.941406 1222.148438 C 829.941406 1175.4375 830.09375 831.050781 830.09375 831.050781 M 620.671875 922.546875 C 581.9375 904.957031 548.691406 924.574219 534.570312 946.253906 L 415.511719 1148.671875 L 415.304688 985.488281 L 274.953125 1043.605469 L 274.511719 1505.070312 L 373.378906 1463.640625 C 373.378906 1463.640625 392.789062 1458.140625 404.5 1439.742188 C 415.265625 1422.796875 414.863281 1394.367188 414.863281 1394.367188 L 414.984375 1248.039062 L 525.484375 1365.242188 C 549.746094 1390.429688 594.324219 1403.363281 633.660156 1371.601562 C 669.226562 1342.890625 663.71875 1293.941406 643.878906 1272.019531 L 543.21875 1170.730469 C 543.21875 1170.730469 631.804688 1031.171875 646.289062 1007.855469 C 665.511719 976.878906 655.839844 938.519531 620.671875 922.546875 "/>
<path style=" stroke:none;fill-rule:nonzero;fill:rgb(100%,73.333333%,21.176471%);fill-opacity:1;" d="M 565.703125 1464.976562 C 560.476562 1477.007812 572.394531 1488.941406 572.394531 1488.941406 C 623.480469 1553.015625 850.300781 1634.261719 1096.496094 1574.78125 C 1472.476562 1483.886719 1551.921875 1218 1560.917969 1180.457031 C 1562.769531 1172.800781 1564.230469 1160.492188 1557.125 1153.105469 C 1551.164062 1146.9375 1542.691406 1146.871094 1530.9375 1149.589844 C 1269.800781 1210.953125 835.253906 1343.546875 584.722656 1450.847656 C 573.9375 1455.464844 569.058594 1457.160156 565.703125 1464.976562 "/>
<path style=" stroke:none;fill-rule:nonzero;fill:rgb(92.54902%,11.372549%,13.72549%);fill-opacity:1;" d="M 342.71875 860.203125 C 342.375 834.765625 322.59375 820.886719 288.410156 838.039062 L 288.339844 919.804688 C 288.339844 919.804688 299.394531 914.914062 307.5 911.140625 C 327.488281 901.871094 343.191406 885.203125 342.71875 860.203125 M 287.738281 786.292969 C 293.058594 784.230469 298.289062 781.941406 303.410156 779.425781 C 321.925781 770.410156 335.105469 753.691406 335.261719 732.042969 C 335.449219 707.390625 315.140625 701.019531 287.777344 715.160156 Z M 432.445312 848.519531 C 433.554688 913.050781 387.050781 947.386719 326.46875 972.476562 L 202.375 1025.175781 L 202.085938 689.109375 C 202.085938 689.109375 280.273438 657.246094 305.78125 647.96875 C 378.285156 621.597656 420.921875 653.390625 420.921875 701.804688 C 420.921875 734.113281 407.085938 761.574219 377.0625 785.707031 C 406.628906 790.636719 431.875 814.914062 432.445312 848.519531 Z M 668.015625 564.863281 C 668.015625 536.558594 648.539062 529.03125 624.980469 535.808594 C 605.933594 541.257812 583.75 549.917969 583.75 549.917969 L 583.597656 758.851562 C 583.367188 779.660156 580.148438 805.710938 554.5 812.164062 C 534.8125 817.125 525.503906 803.996094 525.484375 783.222656 L 525.203125 612.214844 C 525.203125 583.761719 505.402344 575.246094 481.917969 583.03125 C 455.523438 591.84375 439.660156 598.1875 439.660156 598.1875 C 439.660156 598.1875 439.96875 746.140625 439.605469 805.304688 C 439.265625 874.65625 487.105469 909.285156 560.023438 887.757812 C 624.34375 868.746094 667.296875 832.765625 668.109375 740.398438 Z M 1357.683594 651.210938 C 1376.214844 647.214844 1387.777344 634.117188 1387.777344 611.484375 C 1387.777344 591.09375 1387.851562 575.585938 1387.851562 575.585938 L 1287.191406 597.570312 L 1287.378906 538.375 C 1287.378906 538.375 1336.714844 527.921875 1350.414062 524.933594 C 1367.632812 521.160156 1376.648438 511.777344 1376.648438 492.109375 C 1376.648438 473.765625 1376.535156 457.890625 1376.535156 457.890625 L 1287.34375 476.808594 L 1287.328125 429.875 C 1287.328125 429.875 1333.691406 420.199219 1358.675781 414.949219 C 1378.140625 410.859375 1384.566406 397.535156 1384.566406 379.195312 C 1384.566406 367.253906 1384.757812 343.617188 1384.757812 343.617188 C 1340.269531 351.464844 1255.695312 368.355469 1202.957031 380.433594 L 1202.242188 686.789062 C 1202.242188 686.789062 1302.527344 663.175781 1357.683594 651.210938 M 776.011719 638.835938 C 776.085938 638.78125 825.808594 613.105469 825.265625 572.371094 C 824.773438 537.542969 792.683594 545.164062 776.03125 551.269531 Z M 776.140625 686.097656 C 776.140625 686.097656 775.976562 744.765625 775.890625 768.441406 C 775.6875 790.636719 760.527344 806.664062 741.335938 813.996094 C 725.289062 819.496094 691.191406 831.226562 691.191406 831.226562 L 691.324219 515.753906 C 691.324219 515.753906 761.734375 491.234375 803.140625 481.617188 C 867.484375 466.65625 913.246094 495.921875 912.417969 547.878906 C 912.019531 597.34375 884.414062 627.359375 859.617188 647.90625 L 914.109375 700.207031 C 930.855469 716.421875 932.023438 745.738281 913.1875 763.457031 C 902.023438 773.941406 872.15625 784.8125 848.769531 761.023438 Z M 1488.574219 469.160156 C 1488.679688 469.160156 1537.695312 450.5 1537.140625 411.210938 C 1536.628906 377.980469 1503.898438 383.996094 1488.449219 387.445312 L 1488.574219 469.160156 M 1406.3125 642.027344 L 1406.445312 339.53125 C 1406.445312 339.53125 1494.804688 323.917969 1517.625 320.980469 C 1580.964844 312.851562 1623.46875 347.992188 1622.597656 397.914062 C 1622.261719 441.816406 1594.667969 468.234375 1571.21875 484.082031 C 1571.21875 484.082031 1614.304688 532.609375 1625.851562 545.445312 C 1641.363281 562.75 1640.671875 592.332031 1617.722656 606.820312 C 1595.167969 621.039062 1572.828125 613.601562 1559.855469 599.28125 L 1488.726562 515.894531 C 1488.726562 515.894531 1488.957031 567.183594 1488.898438 589.574219 C 1488.691406 611.863281 1475.789062 628.113281 1452.660156 632.898438 Z M 1406.3125 642.027344 "/>
<path style=" stroke:none;fill-rule:nonzero;fill:rgb(92.54902%,11.372549%,13.72549%);fill-opacity:1;" d="M 1182.425781 515.0625 L 1057.085938 543.515625 C 1057.085938 543.515625 1056.933594 556.753906 1056.914062 578.363281 C 1057.085938 594.566406 1068.453125 605.085938 1084.8125 601.71875 C 1095.125 599.582031 1103.378906 597.667969 1103.378906 597.667969 L 1103.570312 632.464844 C 1103.703125 646.230469 1083.039062 655.246094 1061.578125 654.75 C 1031.507812 653.96875 1014.832031 630.609375 1014.398438 586.164062 C 1015.335938 527.722656 1042.839844 493.414062 1080.300781 483.835938 C 1099.007812 479.019531 1116.03125 481.363281 1129.257812 483.078125 C 1161.550781 488.296875 1180.144531 472.730469 1180.808594 446.054688 C 1181.480469 417.476562 1156.125 399.804688 1101.703125 401.691406 C 983.695312 405.765625 923.355469 490.519531 923.355469 591.664062 C 923.355469 695.25 991.054688 741.007812 1073.683594 726.078125 C 1120.378906 716.664062 1143.605469 701.507812 1159.703125 687.398438 C 1175.792969 673.289062 1182.425781 652.1875 1182.425781 634.167969 Z M 1182.425781 515.0625 "/>
<path style=" stroke:none;fill-rule:nonzero;fill:rgb(100%,100%,100%);fill-opacity:1;" d="M 688.601562 176.257812 C 550.375 237.25 457.046875 382.441406 451.917969 443.898438 C 449.898438 468.328125 482.304688 471.835938 485.351562 445.894531 C 514.519531 333.789062 603.792969 228.09375 688.601562 176.257812 M 1146.65625 280.429688 C 1221.210938 262.148438 1262.15625 259.390625 1262.894531 226.097656 C 1264.1875 170.351562 1105.078125 105.707031 959.386719 117.417969 C 1107.828125 127.332031 1196.871094 184.457031 1197.359375 224.269531 C 1197.640625 249.449219 1175.8125 271.667969 1146.65625 280.429688 M 1192.855469 1512.617188 C 1304.726562 1468.636719 1412.230469 1384.617188 1471.703125 1258.773438 C 1488.867188 1222.40625 1439.234375 1203.828125 1425.226562 1246.535156 C 1390.414062 1336.003906 1318.871094 1441.058594 1192.855469 1512.617188 "/>
</g>
</svg>
