<?xml version="1.0" encoding="UTF-8"?>
<svg xmlns="http://www.w3.org/2000/svg" xmlns:xlink="http://www.w3.org/1999/xlink" width="px" height="px" viewBox="0 0 2783 2783" version="1.1">
<defs>
<linearGradient id="linear0" gradientUnits="userSpaceOnUse" x1="408.1324" y1="665.0188" x2="1011.0006" y2="2249.1067" gradientTransform="matrix(0.748559,-0.0489838,0.0489838,0.748559,203.646513,72.099279)">
<stop offset="0" style="stop-color:rgb(66.666667%,50.196078%,97.647059%);stop-opacity:1;"/>
<stop offset="0.9964" style="stop-color:rgb(38.039216%,39.607843%,84.313725%);stop-opacity:1;"/>
</linearGradient>
<clipPath id="clip1">
  <path d="M 443 570 L 1008 570 L 1008 1580 L 443 1580 Z M 443 570 "/>
</clipPath>
<clipPath id="clip2">
  <path d="M 849.246094 1579.191406 L 995.074219 1541.632812 C 995.074219 1541.632812 1032.636719 1432.390625 978.730469 1403.273438 C 924.824219 1374.15625 945.464844 1269.25 949.984375 1212.035156 C 962.246094 1056.800781 794.488281 1070.910156 794.300781 870.167969 C 794.25 816.773438 812.007812 714.9375 766.992188 672.410156 C 715.710938 623.960938 678.269531 671.488281 645.296875 630.972656 C 593.757812 567.652344 510.121094 544.933594 460.269531 610.101562 C 411.066406 674.421875 470.851562 802.453125 619.476562 905.359375 C 717.738281 991.261719 719.273438 1016.976562 711.539062 1079.605469 C 706.121094 1123.472656 664.277344 1237.742188 723.820312 1283.375 C 783.359375 1329.003906 828.867188 1378.3125 805.929688 1427.855469 C 771.023438 1503.238281 849.246094 1579.191406 849.246094 1579.191406 Z M 849.246094 1579.191406 "/>
</clipPath>
<filter id="alpha" filterUnits="objectBoundingBox" x="0%" y="0%" width="100%" height="100%">
  <feColorMatrix type="matrix" in="SourceGraphic" values="0 0 0 0 1 0 0 0 0 1 0 0 0 0 1 0 0 0 1 0"/>
</filter>
<mask id="mask0">
  <g filter="url(#alpha)">
<rect x="0" y="0" width="2783" height="2783" style="fill:rgb(0%,0%,0%);fill-opacity:0.501961;stroke:none;"/>
  </g>
</mask>
<clipPath id="clip3">
  <rect x="0" y="0" width="2783" height="2783"/>
</clipPath>
<g id="surface5" clip-path="url(#clip3)">
<path style=" stroke:none;fill-rule:nonzero;fill:rgb(98.823529%,99.215686%,99.607843%);fill-opacity:1;" d="M 912.765625 1555.371094 L 915.730469 1555.003906 C 913.527344 1537.351562 911.089844 1519.578125 908.484375 1502.171875 C 889.179688 1373.316406 858.546875 1250.925781 817.433594 1138.394531 C 782.59375 1043.046875 739.761719 953.429688 690.121094 872.03125 C 650.203125 806.574219 605.6875 746.050781 557.808594 692.144531 C 524.152344 654.253906 489.191406 619.996094 453.902344 590.332031 C 447.753906 585.160156 441.175781 580.214844 434.816406 575.433594 C 426.339844 569.0625 417.574219 562.476562 409.757812 555.300781 L 407.742188 557.5 C 415.664062 564.773438 424.488281 571.40625 433.019531 577.820312 C 439.351562 582.578125 445.894531 587.5 451.984375 592.617188 C 487.160156 622.1875 522.015625 656.34375 555.578125 694.128906 C 603.339844 747.898438 647.746094 808.277344 687.574219 873.585938 C 737.109375 954.816406 779.855469 1044.253906 814.628906 1139.417969 C 855.675781 1251.757812 886.257812 1373.957031 905.53125 1502.613281 C 908.136719 1519.992188 910.570312 1537.742188 912.765625 1555.371094 Z M 912.765625 1555.371094 "/>
<path style=" stroke:none;fill-rule:nonzero;fill:rgb(98.823529%,99.215686%,99.607843%);fill-opacity:1;" d="M 743.863281 975.101562 L 746.566406 973.832031 C 692.136719 857.828125 739.933594 643.507812 740.421875 641.355469 L 737.511719 640.691406 C 737.019531 642.851562 689 858.164062 743.863281 975.101562 Z M 743.863281 975.101562 "/>
<path style=" stroke:none;fill-rule:nonzero;fill:rgb(98.823529%,99.215686%,99.607843%);fill-opacity:1;" d="M 867.675781 1312.960938 L 870.507812 1312.015625 C 842.742188 1228.851562 687.046875 1164.65625 685.476562 1164.015625 L 684.351562 1166.78125 C 685.910156 1167.414062 840.34375 1231.09375 867.675781 1312.960938 Z M 867.675781 1312.960938 "/>
<path style=" stroke:none;fill-rule:nonzero;fill:rgb(98.823529%,99.215686%,99.607843%);fill-opacity:1;" d="M 879.347656 1361.511719 L 882.304688 1361.078125 C 874.066406 1304.441406 893.089844 1222.800781 935.878906 1131.199219 C 938.03125 1126.59375 938.03125 1126.59375 937.957031 1126.03125 L 934.996094 1126.425781 L 936.476562 1126.230469 L 935.035156 1125.859375 C 934.929688 1126.183594 934.117188 1127.921875 933.171875 1129.9375 C 890.144531 1222.0625 871.027344 1304.300781 879.347656 1361.511719 Z M 879.347656 1361.511719 "/>
<path style=" stroke:none;fill-rule:nonzero;fill:rgb(98.823529%,99.215686%,99.607843%);fill-opacity:1;" d="M 908.296875 1523.214844 L 911.003906 1521.957031 C 884.457031 1464.78125 793.722656 1442.214844 792.808594 1441.996094 L 792.105469 1444.898438 C 793.003906 1445.113281 882.355469 1467.347656 908.296875 1523.214844 Z M 908.296875 1523.214844 "/>
<path style=" stroke:none;fill-rule:nonzero;fill:rgb(98.823529%,99.215686%,99.607843%);fill-opacity:1;" d="M 917.28125 1555.605469 C 928.53125 1506.03125 954.382812 1458.066406 996.3125 1408.972656 L 994.042969 1407.03125 C 951.789062 1456.507812 925.730469 1504.886719 914.371094 1554.945312 Z M 917.28125 1555.605469 "/>
<path style=" stroke:none;fill-rule:nonzero;fill:rgb(98.823529%,99.215686%,99.607843%);fill-opacity:1;" d="M 583.253906 726.339844 L 585.882812 724.921875 C 552.027344 662.109375 531.015625 588.277344 524.113281 564.011719 C 522.441406 558.140625 521.847656 556.074219 521.515625 555.390625 L 518.832031 556.695312 C 519.078125 557.222656 520.03125 560.578125 521.242188 564.832031 C 528.167969 589.171875 549.246094 663.242188 583.253906 726.339844 Z M 583.253906 726.339844 "/>
<path style=" stroke:none;fill-rule:nonzero;fill:rgb(98.823529%,99.215686%,99.607843%);fill-opacity:1;" d="M 653.410156 820.320312 L 655.503906 818.195312 C 607.816406 771.253906 474.003906 772.757812 468.332031 772.84375 L 468.378906 775.828125 C 469.753906 775.808594 606.613281 774.261719 653.410156 820.320312 Z M 653.410156 820.320312 "/>
</g>
<clipPath id="clip4">
  <path d="M 318 843 L 1075 843 L 1075 1858 L 318 1858 Z M 318 843 "/>
</clipPath>
<clipPath id="clip5">
  <path d="M 1042.714844 1803.289062 L 868.742188 1857.816406 C 868.742188 1857.816406 808.019531 1778.839844 830.910156 1702.492188 C 877.621094 1546.726562 737.933594 1516.6875 681.308594 1495.355469 C 595.917969 1463.183594 534.695312 1397.589844 624.984375 1332.378906 C 715.277344 1267.167969 564.980469 1142.667969 419.582031 1110.585938 C 277.296875 1079.191406 251.003906 808.152344 565.195312 847.824219 C 752.832031 871.519531 781.660156 1053.546875 818.070312 1142.007812 C 854.484375 1230.46875 992.09375 1195.601562 980.628906 1321.203125 C 970.832031 1428.492188 917.394531 1521.230469 995.175781 1568.5 C 1072.957031 1615.769531 1101.816406 1687.058594 1042.714844 1803.289062 Z M 1042.714844 1803.289062 "/>
</clipPath>
<linearGradient id="linear1" gradientUnits="userSpaceOnUse" x1="4367.6118" y1="984.0447" x2="3883.7468" y2="2359.2415" gradientTransform="matrix(-0.715779,0.224365,0.224365,0.715779,3322.905451,-797.058926)">
<stop offset="0.0036" style="stop-color:rgb(89.019608%,55.294118%,86.666667%);stop-opacity:1;"/>
<stop offset="1" style="stop-color:rgb(58.431373%,44.313725%,96.470588%);stop-opacity:1;"/>
</linearGradient>
<mask id="mask1">
  <g filter="url(#alpha)">
<rect x="0" y="0" width="2783" height="2783" style="fill:rgb(0%,0%,0%);fill-opacity:0.501961;stroke:none;"/>
  </g>
</mask>
<clipPath id="clip6">
  <rect x="0" y="0" width="2783" height="2783"/>
</clipPath>
<g id="surface8" clip-path="url(#clip6)">
<path style=" stroke:none;fill-rule:nonzero;fill:rgb(74.509804%,72.156863%,94.901961%);fill-opacity:1;" d="M 972.476562 1843.035156 L 968.65625 1843.503906 C 968.367188 1841.140625 938.359375 1604.355469 837.835938 1378.59375 C 745.226562 1170.609375 572.070312 929.6875 273.085938 963.074219 L 272.65625 959.25 C 405.753906 944.386719 525.402344 981.703125 628.285156 1070.15625 C 710.46875 1140.820312 782.167969 1244.089844 841.382812 1377.101562 C 942.125 1603.382812 972.1875 1840.664062 972.476562 1843.035156 Z M 972.476562 1843.035156 "/>
<path style=" stroke:none;fill-rule:nonzero;fill:rgb(74.509804%,72.156863%,94.901961%);fill-opacity:1;" d="M 669.679688 1108.976562 L 665.890625 1109.664062 C 642.972656 983.628906 542.75 825.800781 541.738281 824.222656 L 544.980469 822.148438 C 545.996094 823.734375 646.625 982.203125 669.679688 1108.976562 Z M 669.679688 1108.976562 "/>
<path style=" stroke:none;fill-rule:nonzero;fill:rgb(74.509804%,72.156863%,94.901961%);fill-opacity:1;" d="M 599.515625 1051.917969 C 451.734375 1013.640625 347.808594 1086.808594 346.773438 1087.550781 L 344.527344 1084.429688 C 345.574219 1083.671875 450.886719 1009.445312 600.480469 1048.191406 Z M 599.515625 1051.917969 "/>
<path style=" stroke:none;fill-rule:nonzero;fill:rgb(74.509804%,72.156863%,94.901961%);fill-opacity:1;" d="M 895.511719 1529.769531 C 800.171875 1369.484375 551.355469 1400.832031 548.953125 1401.339844 L 547.914062 1397.640625 C 550.21875 1396.917969 802.636719 1366.09375 898.820312 1527.804688 Z M 895.511719 1529.769531 "/>
<path style=" stroke:none;fill-rule:nonzero;fill:rgb(74.509804%,72.156863%,94.901961%);fill-opacity:1;" d="M 873.648438 1456.042969 L 869.816406 1456.421875 C 858.09375 1337.992188 954.714844 1223.691406 955.695312 1222.546875 L 958.617188 1225.050781 C 957.648438 1226.179688 862.085938 1339.265625 873.648438 1456.042969 Z M 873.648438 1456.042969 "/>
<path style=" stroke:none;fill-rule:nonzero;fill:rgb(74.509804%,72.156863%,94.901961%);fill-opacity:1;" d="M 963.117188 1806.347656 C 936.695312 1740.609375 823.742188 1717.40625 822.605469 1717.179688 L 823.359375 1713.40625 C 828.085938 1714.34375 939.488281 1737.238281 966.6875 1804.914062 Z M 963.117188 1806.347656 "/>
<path style=" stroke:none;fill-rule:nonzero;fill:rgb(74.509804%,72.156863%,94.901961%);fill-opacity:1;" d="M 956.765625 1750.179688 L 952.949219 1750.699219 C 945.429688 1695.1875 1006.679688 1611.523438 1026.804688 1584.035156 C 1029.648438 1580.148438 1032.105469 1576.792969 1032.425781 1576.109375 L 1035.933594 1577.691406 C 1035.496094 1578.664062 1033.871094 1580.894531 1029.910156 1586.308594 C 1010.011719 1613.488281 949.453125 1696.207031 956.765625 1750.179688 Z M 956.765625 1750.179688 "/>
</g>
<linearGradient id="linear2" gradientUnits="userSpaceOnUse" x1="3437.7346" y1="1492.9542" x2="3949.7458" y2="2335.8564" gradientTransform="matrix(0.74991,0.0170281,-0.0170281,0.74991,-1904.903189,89.524759)">
<stop offset="0" style="stop-color:rgb(100%,76.862745%,26.666667%);stop-opacity:1;"/>
<stop offset="0.9964" style="stop-color:rgb(95.294118%,43.529412%,33.72549%);stop-opacity:1;"/>
</linearGradient>
<clipPath id="clip7">
  <path d="M 498 1223 L 1055 1223 L 1055 1902 L 498 1902 Z M 498 1223 "/>
</clipPath>
<clipPath id="clip8">
  <path d="M 872.917969 1897.453125 L 1042.542969 1901.300781 C 1052.96875 1877.515625 1066.59375 1833.503906 1031.351562 1821.777344 C 982.355469 1805.476562 983.816406 1718.476562 998.3125 1688.121094 C 1016.25 1650.558594 1056.230469 1562.226562 980.882812 1535.835938 C 918.15625 1513.863281 873.1875 1512.503906 871.242188 1430.820312 C 869.300781 1349.132812 826.339844 1296.894531 752.234375 1299.484375 C 674.25 1302.210938 613.59375 1196.660156 548.773438 1229.363281 C 435.824219 1286.351562 530.988281 1469.140625 664.519531 1525.332031 C 798.050781 1581.527344 719.054688 1627.847656 713.371094 1694.472656 C 705.609375 1785.433594 829.378906 1769.726562 860.820312 1806.515625 C 885.46875 1835.355469 879.550781 1873.933594 872.917969 1897.453125 Z M 872.917969 1897.453125 "/>
</clipPath>
<mask id="mask2">
  <g filter="url(#alpha)">
<rect x="0" y="0" width="2783" height="2783" style="fill:rgb(0%,0%,0%);fill-opacity:0.501961;stroke:none;"/>
  </g>
</mask>
<clipPath id="clip9">
  <rect x="0" y="0" width="2783" height="2783"/>
</clipPath>
<g id="surface11" clip-path="url(#clip9)">
<path style=" stroke:none;fill-rule:nonzero;fill:rgb(98.823529%,99.215686%,99.607843%);fill-opacity:1;" d="M 953.394531 1872.582031 L 957.015625 1871.957031 C 911.09375 1607.109375 736.855469 1365.851562 502.304688 1242.328125 L 500.59375 1245.582031 C 734.15625 1368.585938 907.660156 1608.839844 953.394531 1872.582031 Z M 953.394531 1872.582031 "/>
<path style=" stroke:none;fill-rule:nonzero;fill:rgb(98.823529%,99.215686%,99.607843%);fill-opacity:1;" d="M 915.984375 1730.332031 L 919.660156 1730.433594 C 922.523438 1624.835938 1015.152344 1544.972656 1016.089844 1544.179688 L 1013.710938 1541.375 C 1012.761719 1542.179688 918.894531 1623.070312 915.984375 1730.332031 Z M 915.984375 1730.332031 "/>
<path style=" stroke:none;fill-rule:nonzero;fill:rgb(98.823529%,99.215686%,99.607843%);fill-opacity:1;" d="M 943.617188 1824.09375 L 946.898438 1822.4375 C 898.617188 1726.839844 704.460938 1708.230469 702.503906 1708.054688 L 702.171875 1711.71875 C 704.105469 1711.894531 896.253906 1730.3125 943.617188 1824.09375 Z M 943.617188 1824.09375 "/>
<path style=" stroke:none;fill-rule:nonzero;fill:rgb(98.823529%,99.215686%,99.607843%);fill-opacity:1;" d="M 791.652344 1498.054688 L 795.066406 1496.683594 C 763.378906 1417.855469 817.480469 1299.339844 818.03125 1298.152344 L 814.695312 1296.605469 C 814.136719 1297.808594 759.378906 1417.769531 791.652344 1498.054688 Z M 791.652344 1498.054688 "/>
<path style=" stroke:none;fill-rule:nonzero;fill:rgb(98.823529%,99.215686%,99.607843%);fill-opacity:1;" d="M 677.777344 1370.875 L 679.789062 1367.792969 C 598.71875 1314.886719 470.265625 1339.421875 468.976562 1339.675781 L 469.6875 1343.285156 C 470.960938 1343.03125 597.96875 1318.789062 677.777344 1370.875 Z M 677.777344 1370.875 "/>
</g>
<linearGradient id="linear3" gradientUnits="userSpaceOnUse" x1="2668.4893" y1="2703.8623" x2="1529.2008" y2="1731.9967" gradientTransform="matrix(0.750135,0,0,0.750135,0,0)">
<stop offset="0" style="stop-color:rgb(26.666667%,29.411765%,54.901961%);stop-opacity:1;"/>
<stop offset="0.9964" style="stop-color:rgb(14.901961%,14.901961%,30.980392%);stop-opacity:1;"/>
</linearGradient>
<linearGradient id="linear4" gradientUnits="userSpaceOnUse" x1="-1309.2321" y1="3106.1479" x2="2889.0515" y2="3262.3203" gradientTransform="matrix(0,-0.750135,0.750135,0,-1041.961426,1300.975686)">
<stop offset="0" style="stop-color:rgb(26.666667%,29.411765%,54.901961%);stop-opacity:1;"/>
<stop offset="0.9964" style="stop-color:rgb(14.901961%,14.901961%,30.980392%);stop-opacity:1;"/>
</linearGradient>
<linearGradient id="linear5" gradientUnits="userSpaceOnUse" x1="1137.1794" y1="1914.6407" x2="2388.5586" y2="1914.6407" gradientTransform="matrix(0.750135,0,0,0.750135,0,0)">
<stop offset="0" style="stop-color:rgb(100%,56.470588%,52.156863%);stop-opacity:1;"/>
<stop offset="1" style="stop-color:rgb(98.431373%,43.529412%,73.333333%);stop-opacity:1;"/>
</linearGradient>
<mask id="mask3">
  <g filter="url(#alpha)">
<rect x="0" y="0" width="2783" height="2783" style="fill:rgb(0%,0%,0%);fill-opacity:0.501961;stroke:none;"/>
  </g>
</mask>
<clipPath id="clip10">
  <rect x="0" y="0" width="2783" height="2783"/>
</clipPath>
<g id="surface14" clip-path="url(#clip10)">
<path style=" stroke:none;fill-rule:nonzero;fill:rgb(84.705882%,87.058824%,90.980392%);fill-opacity:1;" d="M 1820.933594 619.761719 C 1794.171875 623.0625 1756.285156 629.367188 1712.355469 642.46875 C 1647.910156 661.691406 1486.335938 709.890625 1399.679688 845.746094 C 1298.835938 1003.84375 1355.351562 1193.027344 1368.984375 1238.660156 C 1414.117188 1389.738281 1527.886719 1523.972656 1593.066406 1600.875 C 1669.453125 1690.996094 1702.574219 1708.421875 1709.714844 1765.867188 C 1721.15625 1857.953125 1647.21875 1903.03125 1642.882812 2049.351562 C 1642.011719 2078.652344 1641.160156 2119.210938 1656.847656 2167.648438 C 1687.539062 2262.433594 1758.859375 2317.308594 1793.859375 2340.539062 C 1802.882812 1766.945312 1811.90625 1193.355469 1820.933594 619.761719 Z M 1820.933594 619.761719 "/>
</g>
<linearGradient id="linear6" gradientUnits="userSpaceOnUse" x1="999.838" y1="2154.7139" x2="1539.1438" y2="2154.7139" gradientTransform="matrix(-0.750135,0,0,0.750135,3021.516302,0)">
<stop offset="0" style="stop-color:rgb(26.666667%,29.411765%,54.901961%);stop-opacity:1;"/>
<stop offset="0.9964" style="stop-color:rgb(24.313725%,25.490196%,46.666667%);stop-opacity:1;"/>
</linearGradient>
<linearGradient id="linear7" gradientUnits="userSpaceOnUse" x1="2708.8035" y1="2651.499" x2="2790.5554" y2="3134.5789" gradientTransform="matrix(0.750135,0,0,0.750135,0,0)">
<stop offset="0" style="stop-color:rgb(26.666667%,29.411765%,54.901961%);stop-opacity:1;"/>
<stop offset="0.9964" style="stop-color:rgb(14.901961%,14.901961%,30.980392%);stop-opacity:1;"/>
</linearGradient>
<linearGradient id="linear8" gradientUnits="userSpaceOnUse" x1="1367.8463" y1="2734.0398" x2="1297.4414" y2="3174.834" gradientTransform="matrix(-0.750135,0,0,0.750135,3021.516302,0)">
<stop offset="0" style="stop-color:rgb(19.215686%,9.803922%,26.666667%);stop-opacity:1;"/>
<stop offset="1" style="stop-color:rgb(62.745098%,22.352941%,46.27451%);stop-opacity:1;"/>
</linearGradient>
<mask id="mask4">
  <g filter="url(#alpha)">
<rect x="0" y="0" width="2783" height="2783" style="fill:rgb(0%,0%,0%);fill-opacity:0.301961;stroke:none;"/>
  </g>
</mask>
<linearGradient id="linear9" gradientUnits="userSpaceOnUse" x1="999.8384" y1="2154.7529" x2="1539.1412" y2="2154.7529" gradientTransform="matrix(-0.750135,0,0,0.750135,3021.516302,0)">
<stop offset="0" style="stop-color:rgb(26.666667%,29.411765%,54.901961%);stop-opacity:1;"/>
<stop offset="0.9964" style="stop-color:rgb(24.313725%,25.490196%,46.666667%);stop-opacity:1;"/>
</linearGradient>
<clipPath id="clip11">
  <rect x="0" y="0" width="2783" height="2783"/>
</clipPath>
<g id="surface17" clip-path="url(#clip11)">
<path style=" stroke:none;fill-rule:nonzero;fill:url(#linear9);" d="M 1890.511719 1528.429688 C 1845.726562 1442.339844 1868.78125 1311.265625 1926.09375 1283.277344 C 1941.121094 1275.9375 1959.058594 1275.527344 1978.652344 1280.4375 C 1968.332031 1310.230469 1970.378906 1331.773438 1975.472656 1347.03125 C 1998.179688 1415.085938 2096.351562 1407.34375 2127.019531 1484.800781 C 2146.410156 1533.769531 2115.578125 1558.066406 2143.09375 1597.316406 C 2171.609375 1637.992188 2218.242188 1631.171875 2232.644531 1670.796875 C 2243.378906 1700.320312 2222.214844 1717.105469 2230.351562 1741.980469 C 2232.617188 1748.910156 2237.085938 1755.867188 2244.597656 1762.476562 C 2194.160156 1853.1875 2076.789062 1926.847656 1927.25 1955.527344 C 1921.894531 1936.390625 1916.535156 1917.257812 1911.175781 1898.121094 C 1931.988281 1876.449219 1963.105469 1845.160156 2002.878906 1809.308594 C 2063.96875 1754.242188 2076.523438 1750.570312 2079.453125 1733.183594 C 2089.046875 1676.234375 1942.601562 1628.5625 1890.511719 1528.429688 Z M 1890.511719 1528.429688 "/>
</g>
<linearGradient id="linear10" gradientUnits="userSpaceOnUse" x1="1298.6858" y1="2386.3545" x2="1759.819" y2="2386.3545" gradientTransform="matrix(-0.750135,0,0,0.750135,3021.516302,0)">
<stop offset="0" style="stop-color:rgb(26.666667%,29.411765%,54.901961%);stop-opacity:1;"/>
<stop offset="0.9964" style="stop-color:rgb(24.313725%,25.490196%,46.666667%);stop-opacity:1;"/>
</linearGradient>
<linearGradient id="linear11" gradientUnits="userSpaceOnUse" x1="1595.9978" y1="835.3492" x2="1261.3202" y2="2027.1288" gradientTransform="matrix(-0.750135,0,0,0.750135,3021.516302,0)">
<stop offset="0" style="stop-color:rgb(100%,76.862745%,26.666667%);stop-opacity:1;"/>
<stop offset="0.9964" style="stop-color:rgb(95.294118%,43.529412%,33.72549%);stop-opacity:1;"/>
</linearGradient>
<linearGradient id="linear12" gradientUnits="userSpaceOnUse" x1="1059.1019" y1="1418.8749" x2="1117.2625" y2="1607.6414" gradientTransform="matrix(-0.750135,0,0,0.750135,3021.516302,0)">
<stop offset="0" style="stop-color:rgb(100%,76.862745%,26.666667%);stop-opacity:1;"/>
<stop offset="0.9964" style="stop-color:rgb(95.294118%,43.529412%,33.72549%);stop-opacity:1;"/>
</linearGradient>
<linearGradient id="linear13" gradientUnits="userSpaceOnUse" x1="2526.4717" y1="1280.9197" x2="2608.314" y2="1419.1422" gradientTransform="matrix(0.750135,0,0,0.750135,0,0)">
<stop offset="0" style="stop-color:rgb(19.215686%,9.803922%,26.666667%);stop-opacity:1;"/>
<stop offset="1" style="stop-color:rgb(62.745098%,22.352941%,46.27451%);stop-opacity:1;"/>
</linearGradient>
<mask id="mask5">
  <g filter="url(#alpha)">
<rect x="0" y="0" width="2783" height="2783" style="fill:rgb(0%,0%,0%);fill-opacity:0.301961;stroke:none;"/>
  </g>
</mask>
<linearGradient id="linear14" gradientUnits="userSpaceOnUse" x1="1787.2733" y1="889.0627" x2="1452.5952" y2="2080.844" gradientTransform="matrix(-0.750135,0,0,0.750135,3021.516302,0)">
<stop offset="0" style="stop-color:rgb(100%,76.862745%,26.666667%);stop-opacity:1;"/>
<stop offset="0.9964" style="stop-color:rgb(95.294118%,43.529412%,33.72549%);stop-opacity:1;"/>
</linearGradient>
<clipPath id="clip12">
  <rect x="0" y="0" width="2783" height="2783"/>
</clipPath>
<g id="surface20" clip-path="url(#clip12)">
<path style=" stroke:none;fill-rule:nonzero;fill:url(#linear14);" d="M 1702.222656 851.046875 C 1715.078125 886.046875 1676.5 916.375 1693.035156 954.378906 C 1716.734375 1008.839844 1810.914062 980.886719 1844.585938 1034.746094 C 1884.492188 1098.578125 1793.109375 1203.273438 1830.808594 1239.109375 C 1847.988281 1255.4375 1867.839844 1234.523438 1918.066406 1245.996094 C 1989.597656 1262.335938 2011.089844 1318.863281 2044.355469 1310.292969 C 2054.820312 1307.597656 2067.503906 1298.097656 2078.175781 1268.855469 C 2082.828125 1285.078125 2085.042969 1300.484375 2081.097656 1317.179688 C 2068.761719 1369.359375 2005.851562 1394.671875 1941.097656 1420.730469 C 1897.824219 1438.144531 1763.992188 1491.996094 1686.15625 1431.4375 C 1653.398438 1405.953125 1649.8125 1375.179688 1626.445312 1262.070312 C 1567.070312 974.691406 1544.066406 950 1569.039062 887.789062 C 1582.65625 853.867188 1603.53125 826.277344 1626.285156 804.152344 C 1675.347656 814.984375 1695.492188 832.726562 1702.222656 851.046875 Z M 1702.222656 851.046875 "/>
</g>
<linearGradient id="linear15" gradientUnits="userSpaceOnUse" x1="2483.9934" y1="1461.787" x2="1670.2312" y2="792.9603" gradientTransform="matrix(0.750135,0,0,0.750135,0,0)">
<stop offset="0" style="stop-color:rgb(100%,76.862745%,26.666667%);stop-opacity:1;"/>
<stop offset="0.2564" style="stop-color:rgb(100%,75.686275%,27.058824%);stop-opacity:1;"/>
<stop offset="0.4611" style="stop-color:rgb(99.215686%,71.764706%,27.843137%);stop-opacity:1;"/>
<stop offset="0.648" style="stop-color:rgb(98.431373%,65.098039%,29.019608%);stop-opacity:1;"/>
<stop offset="0.823" style="stop-color:rgb(96.862745%,55.686275%,30.980392%);stop-opacity:1;"/>
<stop offset="0.9903" style="stop-color:rgb(95.294118%,43.921569%,33.72549%);stop-opacity:1;"/>
<stop offset="0.9964" style="stop-color:rgb(95.294118%,43.529412%,33.72549%);stop-opacity:1;"/>
</linearGradient>
<linearGradient id="linear16" gradientUnits="userSpaceOnUse" x1="2998.5742" y1="1455.4069" x2="2705.3066" y2="1234.4331" gradientTransform="matrix(0.750135,0,0,0.750135,0,0)">
<stop offset="0" style="stop-color:rgb(26.666667%,29.411765%,54.901961%);stop-opacity:1;"/>
<stop offset="0.9964" style="stop-color:rgb(14.901961%,14.901961%,30.980392%);stop-opacity:1;"/>
</linearGradient>
<linearGradient id="linear17" gradientUnits="userSpaceOnUse" x1="1161.9895" y1="1238.2887" x2="1301.4418" y2="1489.7255" gradientTransform="matrix(-0.750135,0,0,0.750135,3021.516302,0)">
<stop offset="0" style="stop-color:rgb(26.666667%,29.411765%,54.901961%);stop-opacity:1;"/>
<stop offset="0.9964" style="stop-color:rgb(14.901961%,14.901961%,30.980392%);stop-opacity:1;"/>
</linearGradient>
<mask id="mask6">
  <g filter="url(#alpha)">
<rect x="0" y="0" width="2783" height="2783" style="fill:rgb(0%,0%,0%);fill-opacity:0.301961;stroke:none;"/>
  </g>
</mask>
<linearGradient id="linear18" gradientUnits="userSpaceOnUse" x1="2687.2368" y1="1163.531" x2="2904.325" y2="1689.1848" gradientTransform="matrix(0.750135,0,0,0.750135,0,0)">
<stop offset="0" style="stop-color:rgb(26.666667%,29.411765%,54.901961%);stop-opacity:1;"/>
<stop offset="0.9964" style="stop-color:rgb(14.901961%,14.901961%,30.980392%);stop-opacity:1;"/>
</linearGradient>
<clipPath id="clip13">
  <rect x="0" y="0" width="2783" height="2783"/>
</clipPath>
<g id="surface23" clip-path="url(#clip13)">
<path style=" stroke:none;fill-rule:nonzero;fill:url(#linear18);" d="M 2031.953125 1099.804688 L 2086.550781 898.523438 C 2090.605469 900.523438 2096.457031 903.613281 2101.953125 908.328125 C 2123.457031 926.773438 2135.773438 960.15625 2128.671875 986.855469 C 2119.621094 1020.910156 2084.875 1021.960938 2080.070312 1050.296875 C 2076.308594 1072.476562 2094.296875 1095.949219 2109.15625 1110.300781 L 2048.824219 1119.988281 C 2037.96875 1120.371094 2029.652344 1110.421875 2031.953125 1099.804688 Z M 2031.953125 1099.804688 "/>
</g>
<linearGradient id="linear19" gradientUnits="userSpaceOnUse" x1="1493.5217" y1="726.8889" x2="1454.7482" y2="1057.4854" gradientTransform="matrix(-0.750135,0,0,0.750135,3021.516302,0)">
<stop offset="0" style="stop-color:rgb(19.215686%,9.803922%,26.666667%);stop-opacity:1;"/>
<stop offset="1" style="stop-color:rgb(62.745098%,22.352941%,46.27451%);stop-opacity:1;"/>
</linearGradient>
<linearGradient id="linear20" gradientUnits="userSpaceOnUse" x1="1133.0127" y1="1386.8104" x2="1226.3146" y2="1386.8104" gradientTransform="matrix(-0.750135,0,0,0.750135,3021.516302,0)">
<stop offset="0" style="stop-color:rgb(19.215686%,9.803922%,26.666667%);stop-opacity:1;"/>
<stop offset="1" style="stop-color:rgb(62.745098%,22.352941%,46.27451%);stop-opacity:1;"/>
</linearGradient>
<linearGradient id="linear21" gradientUnits="userSpaceOnUse" x1="2699.5452" y1="715.2062" x2="2647.7117" y2="869.3427" gradientTransform="matrix(0.750135,0,0,0.750135,0,0)">
<stop offset="0" style="stop-color:rgb(26.666667%,29.411765%,54.901961%);stop-opacity:1;"/>
<stop offset="0.9964" style="stop-color:rgb(14.901961%,14.901961%,30.980392%);stop-opacity:1;"/>
</linearGradient>
<linearGradient id="linear22" gradientUnits="userSpaceOnUse" x1="1458.47" y1="771.5728" x2="1421.7369" y2="863.4053" gradientTransform="matrix(-0.750135,0,0,0.750135,3021.516302,0)">
<stop offset="0" style="stop-color:rgb(19.215686%,9.803922%,26.666667%);stop-opacity:1;"/>
<stop offset="1" style="stop-color:rgb(62.745098%,22.352941%,46.27451%);stop-opacity:1;"/>
</linearGradient>
</defs>
<g id="surface1">
<rect x="0" y="0" width="2783" height="2783" style="fill:rgb(100%,100%,100%);fill-opacity:1;stroke:none;"/>
<path style=" stroke:none;fill-rule:nonzero;fill:rgb(95.686275%,96.862745%,98.039216%);fill-opacity:1;" d="M 2199.175781 2186.554688 C 2142.96875 2244.488281 2092.679688 2278.546875 2054.171875 2304.257812 C 1678.644531 2555 1249.371094 2482.730469 1116.652344 2458.027344 C 902.527344 2418.175781 721.773438 2390.058594 566.472656 2249.753906 C 213.585938 1930.933594 230.75 1265.855469 500.398438 853.867188 C 532.371094 805.015625 801.609375 405.917969 1231.8125 349.683594 C 1242.335938 348.308594 1250.183594 347.523438 1257.0625 346.796875 C 1323.613281 339.75 1736.015625 302.5625 2072.289062 584.289062 C 2120.425781 624.617188 2197.890625 697.359375 2269.722656 808.304688 C 2532.382812 1213.960938 2533.21875 1842.238281 2199.175781 2186.554688 Z M 2199.175781 2186.554688 "/>
<path style=" stroke:none;fill-rule:nonzero;fill:url(#linear0);" d="M 805.929688 1427.855469 C 785.863281 1471.191406 804.984375 1514.539062 823.339844 1543.714844 C 827.714844 1543.742188 830.257812 1544.957031 834.683594 1546.03125 C 874.597656 1555.742188 893.316406 1550.800781 933.894531 1553.738281 C 942.628906 1554.371094 968.578125 1547.863281 979 1544.464844 L 998.332031 1537.800781 C 998.332031 1537.800781 1032.636719 1432.390625 978.730469 1403.273438 C 924.824219 1374.15625 945.464844 1269.25 949.984375 1212.039062 C 962.246094 1056.800781 794.492188 1070.910156 794.300781 870.167969 C 794.253906 816.777344 812.011719 714.9375 766.996094 672.410156 C 715.710938 623.960938 678.273438 671.488281 645.296875 630.976562 C 593.757812 567.652344 510.125 544.9375 460.269531 610.105469 C 411.066406 674.421875 470.855469 802.457031 619.476562 905.359375 C 717.738281 991.261719 719.273438 1016.980469 711.539062 1079.605469 C 706.121094 1123.472656 664.277344 1237.746094 723.820312 1283.375 C 783.359375 1329.007812 828.867188 1378.3125 805.929688 1427.855469 Z M 805.929688 1427.855469 "/>
<g clip-path="url(#clip1)" clip-rule="nonzero">
<g clip-path="url(#clip2)" clip-rule="nonzero">
<use xlink:href="#surface5" mask="url(#mask0)"/>
</g>
</g>
<g clip-path="url(#clip4)" clip-rule="nonzero">
<g clip-path="url(#clip5)" clip-rule="nonzero">
<path style=" stroke:none;fill-rule:nonzero;fill:url(#linear1);" d="M 1042.714844 1803.289062 L 868.742188 1857.816406 C 868.742188 1857.816406 808.019531 1778.839844 830.910156 1702.492188 C 877.621094 1546.726562 737.933594 1516.6875 681.308594 1495.355469 C 595.917969 1463.183594 543.964844 1403.316406 612.328125 1332.488281 C 689.679688 1252.351562 564.980469 1142.667969 419.582031 1110.585938 C 277.296875 1079.191406 251.003906 808.152344 565.195312 847.824219 C 752.832031 871.519531 781.660156 1053.546875 818.070312 1142.007812 C 854.484375 1230.472656 992.09375 1195.601562 980.628906 1321.203125 C 970.832031 1428.492188 917.394531 1521.230469 995.175781 1568.503906 C 1072.957031 1615.769531 1101.816406 1687.058594 1042.714844 1803.289062 Z M 1042.714844 1803.289062 "/>
<use xlink:href="#surface8" mask="url(#mask1)"/>
</g>
</g>
<path style=" stroke:none;fill-rule:nonzero;fill:url(#linear2);" d="M 878.042969 1847.351562 C 878.691406 1847.65625 879.34375 1847.960938 880 1848.261719 C 918.691406 1866.078125 964.125 1878.710938 1017.539062 1882.117188 C 1028 1882.046875 1038.457031 1881.976562 1048.917969 1881.90625 C 1058.339844 1857.332031 1062.902344 1832.277344 1031.351562 1821.777344 C 982.355469 1805.476562 983.816406 1718.476562 998.308594 1688.125 C 1016.25 1650.558594 1056.226562 1562.226562 980.878906 1535.835938 C 918.15625 1513.863281 873.1875 1512.503906 871.242188 1430.820312 C 869.300781 1349.132812 826.339844 1296.894531 752.234375 1299.484375 C 674.25 1302.210938 613.59375 1196.660156 548.769531 1229.363281 C 435.824219 1286.351562 530.988281 1469.140625 664.519531 1525.332031 C 798.046875 1581.527344 719.050781 1627.847656 713.367188 1694.472656 C 705.609375 1785.433594 829.375 1769.730469 860.820312 1806.515625 C 871.46875 1818.976562 876.398438 1833.257812 878.042969 1847.351562 Z M 878.042969 1847.351562 "/>
<g clip-path="url(#clip7)" clip-rule="nonzero">
<g clip-path="url(#clip8)" clip-rule="nonzero">
<use xlink:href="#surface11" mask="url(#mask2)"/>
</g>
</g>
<path style=" stroke:none;fill-rule:nonzero;fill:url(#linear3);" d="M 1793.304688 509.820312 L 1793.304688 2295.761719 C 1793.304688 2322.46875 1770.488281 2328.214844 1744.617188 2329.0625 L 857.816406 2374.925781 L 844.382812 2375.363281 C 816.816406 2376.265625 794.222656 2354.394531 794.222656 2326.761719 L 794.222656 478.824219 C 794.222656 451.1875 816.816406 429.316406 844.382812 430.21875 L 862.613281 430.816406 L 1752.660156 500.039062 C 1778.53125 500.886719 1793.304688 483.113281 1793.304688 509.820312 Z M 1793.304688 509.820312 "/>
<path style=" stroke:none;fill-rule:nonzero;fill:url(#linear4);" d="M 1820.933594 509.820312 L 1820.933594 2295.761719 C 1820.933594 2322.46875 1799.796875 2345.011719 1773.925781 2345.859375 L 872.011719 2375.363281 C 844.441406 2376.265625 821.851562 2354.394531 821.851562 2326.761719 L 821.851562 478.824219 C 821.851562 451.1875 844.441406 429.316406 872.011719 430.21875 L 1773.925781 459.722656 C 1799.796875 460.570312 1820.933594 483.113281 1820.933594 509.820312 Z M 1820.933594 509.820312 "/>
<path style=" stroke:none;fill-rule:nonzero;fill:url(#linear5);" d="M 1791.742188 608.003906 L 1791.742188 2262.464844 C 1791.742188 2287.398438 1771.992188 2308.417969 1747.816406 2309.179688 L 899.730469 2335.820312 C 874.066406 2336.628906 853.039062 2316.222656 853.039062 2290.472656 L 853.039062 582.105469 C 853.039062 556.359375 874.066406 535.90625 899.730469 536.652344 L 1747.8125 561.386719 C 1771.988281 562.089844 1791.742188 583.066406 1791.742188 608.003906 Z M 1791.742188 608.003906 "/>
<path style=" stroke:none;fill-rule:nonzero;fill:rgb(87.058824%,54.509804%,87.45098%);fill-opacity:1;" d="M 1346.664062 500.558594 C 1346.664062 509.96875 1339.167969 517.371094 1329.914062 517.089844 C 1320.65625 516.808594 1313.144531 508.945312 1313.144531 499.523438 C 1313.144531 490.101562 1320.65625 482.699219 1329.914062 482.988281 C 1339.164062 483.28125 1346.664062 491.144531 1346.664062 500.558594 Z M 1346.664062 500.558594 "/>
<path style=" stroke:none;fill-rule:nonzero;fill:rgb(95.686275%,96.862745%,98.039216%);fill-opacity:1;" d="M 1713.316406 1367.1875 L 936.195312 1366.230469 C 913.234375 1366.203125 894.59375 1347.480469 894.59375 1324.417969 L 894.59375 620.242188 C 894.59375 597.175781 913.234375 578.996094 936.195312 579.632812 L 1713.316406 601.195312 C 1735.058594 601.800781 1752.660156 620.445312 1752.660156 642.84375 L 1752.660156 1326.679688 C 1752.660156 1349.078125 1735.058594 1367.214844 1713.316406 1367.1875 Z M 1713.316406 1367.1875 "/>
<path style=" stroke:none;fill-rule:nonzero;fill:rgb(76.078431%,50.588235%,90.980392%);fill-opacity:1;" d="M 1473.417969 1286.039062 L 1184.988281 1284.882812 C 1181.203125 1284.867188 1178.136719 1281.75 1178.136719 1277.917969 L 1178.136719 1193.144531 C 1178.136719 1189.316406 1181.203125 1186.230469 1184.988281 1186.257812 L 1473.417969 1188.382812 C 1477.125 1188.410156 1480.132812 1191.503906 1480.132812 1195.296875 L 1480.132812 1279.203125 C 1480.132812 1282.992188 1477.125 1286.054688 1473.417969 1286.039062 Z M 1473.417969 1286.039062 "/>
<path style=" stroke:none;fill-rule:nonzero;fill:rgb(84.705882%,87.058824%,90.980392%);fill-opacity:1;" d="M 1683.992188 959.867188 L 989.789062 949.234375 L 989.789062 674.253906 L 1683.992188 691.335938 Z M 1683.992188 959.867188 "/>
<path style=" stroke:none;fill-rule:nonzero;fill:rgb(84.705882%,87.058824%,90.980392%);fill-opacity:1;" d="M 1683.992188 1106.542969 L 989.789062 1099.429688 L 989.789062 1002.378906 L 1683.992188 1011.765625 Z M 1683.992188 1106.542969 "/>
<path style=" stroke:none;fill-rule:nonzero;fill:rgb(95.686275%,96.862745%,98.039216%);fill-opacity:1;" d="M 1713.316406 2240.417969 L 936.195312 2262.949219 C 913.234375 2263.617188 894.59375 2245.460938 894.59375 2222.394531 L 894.59375 1518.21875 C 894.59375 1495.15625 913.234375 1476.410156 936.195312 1476.355469 L 1713.316406 1474.425781 C 1735.058594 1474.371094 1752.660156 1492.488281 1752.660156 1514.886719 L 1752.660156 2198.722656 C 1752.660156 2221.117188 1735.058594 2239.789062 1713.316406 2240.417969 Z M 1713.316406 2240.417969 "/>
<path style=" stroke:none;fill-rule:nonzero;fill:rgb(84.705882%,87.058824%,90.980392%);fill-opacity:1;" d="M 1605.363281 1983.746094 L 1049.179688 1994.890625 C 1041.699219 1995.039062 1035.632812 1989.050781 1035.632812 1981.507812 L 1035.632812 1577.296875 C 1035.632812 1569.757812 1041.699219 1563.613281 1049.179688 1563.570312 L 1605.363281 1560.546875 C 1612.5625 1560.507812 1618.394531 1566.464844 1618.394531 1573.859375 L 1618.394531 1970.101562 C 1618.394531 1977.492188 1612.5625 1983.601562 1605.363281 1983.746094 Z M 1605.363281 1983.746094 "/>
<path style=" stroke:none;fill-rule:nonzero;fill:rgb(76.078431%,50.588235%,90.980392%);fill-opacity:1;" d="M 1473.417969 2160.917969 L 1184.988281 2168.421875 C 1181.203125 2168.523438 1178.136719 2165.496094 1178.136719 2161.664062 L 1178.136719 2076.890625 C 1178.136719 2073.058594 1181.203125 2069.882812 1184.988281 2069.796875 L 1473.417969 2063.257812 C 1477.125 2063.171875 1480.132812 2066.179688 1480.132812 2069.972656 L 1480.132812 2153.875 C 1480.132812 2157.667969 1477.125 2160.820312 1473.417969 2160.917969 Z M 1473.417969 2160.917969 "/>
<path style=" stroke:none;fill-rule:nonzero;fill:rgb(95.686275%,96.862745%,98.039216%);fill-opacity:1;" d="M 1329.914062 1806.304688 C 1327.199219 1806.339844 1324.492188 1805.453125 1322.113281 1803.640625 L 1017.699219 1571.523438 C 1010.777344 1566.25 1008.734375 1555.171875 1013.136719 1546.792969 C 1017.535156 1538.414062 1026.703125 1535.902344 1033.621094 1541.183594 L 1330.183594 1767.738281 L 1642.671875 1538.039062 C 1649.425781 1533.074219 1658.148438 1535.789062 1662.144531 1544.109375 C 1666.140625 1552.429688 1663.90625 1563.199219 1657.15625 1568.171875 L 1337.3125 1803.726562 C 1335.03125 1805.410156 1332.46875 1806.269531 1329.914062 1806.304688 Z M 1329.914062 1806.304688 "/>
<use xlink:href="#surface14" mask="url(#mask3)"/>
<path style=" stroke:none;fill-rule:nonzero;fill:url(#linear6);" d="M 1926.09375 1283.277344 C 2000.699219 1246.84375 2146.214844 1378.8125 2217.03125 1505.21875 C 2245.25 1555.59375 2278.382812 1614.734375 2270.253906 1685.039062 C 2255.839844 1809.6875 2117.570312 1919.027344 1927.25 1955.527344 C 1921.890625 1936.390625 1916.535156 1917.257812 1911.175781 1898.121094 C 1931.988281 1876.449219 1963.105469 1845.160156 2002.875 1809.308594 C 2063.96875 1754.238281 2076.523438 1750.570312 2079.453125 1733.183594 C 2089.046875 1676.234375 1942.601562 1628.5625 1890.511719 1528.429688 C 1845.726562 1442.34375 1868.78125 1311.265625 1926.09375 1283.277344 Z M 1926.09375 1283.277344 "/>
<path style=" stroke:none;fill-rule:nonzero;fill:url(#linear7);" d="M 2024.109375 2285.113281 C 2024.109375 2285.113281 2011.859375 2315.328125 2017.949219 2327.164062 C 2024.34375 2339.585938 2042.832031 2335.890625 2094.875 2337.847656 C 2148.175781 2339.847656 2160.230469 2344.125 2162.359375 2338.773438 C 2166.617188 2328.074219 2125.203125 2294.09375 2076.761719 2285.113281 C 2055.421875 2281.15625 2036.933594 2282.832031 2024.109375 2285.113281 Z M 2024.109375 2285.113281 "/>
<path style=" stroke:none;fill-rule:nonzero;fill:url(#linear8);" d="M 2035.082031 2239.941406 L 2064.0625 2285.113281 C 2064.0625 2285.113281 2050.707031 2298.292969 2028.015625 2293.386719 L 1996.136719 2250.589844 Z M 2035.082031 2239.941406 "/>
<use xlink:href="#surface17" mask="url(#mask4)"/>
<path style=" stroke:none;fill-rule:nonzero;fill:url(#linear10);" d="M 1977 1310.289062 C 1973.773438 1440.761719 1975.585938 1581.828125 1985.03125 1732.007812 C 1997.097656 1923.765625 2019.699219 2099.898438 2047.328125 2258.167969 C 2035.054688 2262.074219 2022.78125 2265.980469 2010.507812 2269.882812 C 1884.28125 2146.898438 1846.507812 2038.707031 1836.167969 1960.886719 C 1828.859375 1905.875 1839.921875 1901.144531 1830.054688 1832.292969 C 1811.265625 1701.175781 1762.253906 1656.273438 1727.839844 1533.527344 C 1714.921875 1487.453125 1700.539062 1417.855469 1701.457031 1327.128906 C 1793.304688 1321.515625 1885.152344 1315.902344 1977 1310.289062 Z M 1977 1310.289062 "/>
<path style=" stroke:none;fill-rule:nonzero;fill:url(#linear11);" d="M 2067.421875 1076.59375 C 2065.132812 1077.121094 2055.179688 1080.429688 2051.246094 1122 C 2041.757812 1222.238281 2093.945312 1262.820312 2081.097656 1317.179688 C 2068.761719 1369.355469 2005.851562 1394.671875 1941.101562 1420.726562 C 1897.828125 1438.140625 1763.992188 1491.996094 1686.15625 1431.4375 C 1653.402344 1405.949219 1649.816406 1375.179688 1626.445312 1262.070312 C 1567.070312 974.691406 1544.070312 950 1569.039062 887.789062 C 1611.925781 780.953125 1726.746094 736.710938 1745.847656 729.347656 C 1949.550781 650.859375 2190.101562 795.117188 2285.15625 960.847656 C 2297.671875 982.667969 2372.421875 1112.996094 2319.902344 1174.816406 C 2288.128906 1212.210938 2215.117188 1218.25 2166.929688 1192.746094 C 2102.550781 1158.675781 2088.875 1071.675781 2067.421875 1076.59375 Z M 2067.421875 1076.59375 "/>
<path style=" stroke:none;fill-rule:nonzero;fill:url(#linear12);" d="M 2290.058594 1152.613281 C 2290.691406 1152.613281 2291.339844 1152.480469 2291.957031 1152.195312 C 2294.261719 1151.148438 2295.28125 1148.425781 2294.234375 1146.113281 C 2292.488281 1142.292969 2250.4375 1052.050781 2153.269531 1016.441406 C 2150.882812 1015.558594 2148.25 1016.785156 2147.382812 1019.171875 C 2146.507812 1021.554688 2147.730469 1024.191406 2150.113281 1025.0625 C 2243.578125 1059.316406 2285.460938 1149.027344 2285.871094 1149.925781 C 2286.644531 1151.617188 2288.3125 1152.613281 2290.058594 1152.613281 Z M 2290.058594 1152.613281 "/>
<path style=" stroke:none;fill-rule:nonzero;fill:url(#linear13);" d="M 1908.578125 1049.542969 C 1909.117188 1045.398438 1913.320312 1016.761719 1937.230469 1007.589844 C 1949.121094 1003.027344 1970.019531 1001.691406 1978.160156 1014.75 C 1983.269531 1022.953125 1982.820312 1035.984375 1976.113281 1042.378906 C 1967.628906 1050.460938 1956.566406 1040.851562 1941.324219 1047.496094 C 1923 1055.476562 1920.023438 1077.617188 1913.695312 1076.144531 C 1908.71875 1074.984375 1907.160156 1060.496094 1908.578125 1049.542969 Z M 1908.578125 1049.542969 "/>
<use xlink:href="#surface20" mask="url(#mask5)"/>
<path style=" stroke:none;fill-rule:nonzero;fill:url(#linear15);" d="M 1907.085938 1022.566406 C 1901.59375 1027.5625 1839.964844 1093.75 1772.929688 1076.988281 C 1714.546875 1062.390625 1678.703125 1005.628906 1672.425781 957.871094 C 1657.492188 844.28125 1805.476562 748.9375 1787.234375 725.953125 C 1776.503906 712.433594 1719.367188 737.519531 1679.3125 762.691406 C 1646.46875 783.332031 1508.84375 869.8125 1512.53125 1014.816406 C 1512.90625 1029.53125 1515.277344 1122.78125 1576.992188 1169.320312 C 1660.339844 1232.175781 1789.152344 1230.496094 1926.761719 1078.5625 C 1919.140625 1056.867188 1914.710938 1044.261719 1907.085938 1022.566406 Z M 1907.085938 1022.566406 "/>
<path style=" stroke:none;fill-rule:nonzero;fill:url(#linear16);" d="M 2207.960938 883.394531 L 2141.609375 1095.347656 C 2139.429688 1102.296875 2133.109375 1107.117188 2125.832031 1107.375 L 2039.070312 1119.988281 C 2027.882812 1120.382812 2019.316406 1110.132812 2021.691406 1099.191406 L 2080.195312 882.246094 C 2081.863281 874.542969 2088.5625 868.96875 2096.4375 868.726562 L 2191.042969 861.109375 C 2202.847656 860.742188 2211.488281 872.125 2207.960938 883.394531 Z M 2207.960938 883.394531 "/>
<path style=" stroke:none;fill-rule:nonzero;fill:url(#linear17);" d="M 2204.777344 890.363281 L 2140.378906 1096.070312 C 2138.269531 1102.816406 2132.132812 1107.496094 2125.070312 1107.746094 L 2048.824219 1119.988281 C 2037.964844 1120.371094 2029.648438 1110.421875 2031.957031 1099.804688 L 2089.097656 889.125 C 2090.71875 881.652344 2097.21875 876.242188 2104.863281 876.003906 L 2188.355469 868.734375 C 2199.816406 868.378906 2208.203125 879.425781 2204.777344 890.363281 Z M 2204.777344 890.363281 "/>
<use xlink:href="#surface23" mask="url(#mask6)"/>
<path style=" stroke:none;fill-rule:nonzero;fill:url(#linear19);" d="M 1955.828125 708.925781 C 1952.03125 722.246094 1960.046875 736.09375 1973.511719 739.34375 C 1989.824219 743.277344 2009.695312 748.722656 2018.273438 753.628906 C 2034.023438 762.644531 1970.296875 752.230469 1911.683594 750.855469 C 1875.089844 750 1847.746094 745.890625 1832.363281 742.925781 C 1828.234375 742.128906 1827.914062 736.367188 1831.910156 735.066406 C 1846.558594 730.300781 1870.371094 723.285156 1890.496094 720.753906 C 1915.414062 717.621094 1942.132812 662.640625 1942.132812 662.640625 L 1963.488281 682.035156 Z M 1955.828125 708.925781 "/>
<path style=" stroke:none;fill-rule:nonzero;fill:url(#linear20);" d="M 2167.921875 1034.414062 L 2163.871094 1027.789062 C 2160.285156 1014.027344 2147.066406 1005.046875 2132.953125 1006.785156 L 2111.660156 1009.410156 C 2105 1010.234375 2100.492188 1016.570312 2101.863281 1023.140625 C 2103.84375 1032.644531 2108.941406 1044.015625 2122.023438 1043.132812 C 2144.242188 1041.632812 2158.449219 1074.015625 2158.449219 1074.015625 L 2166.976562 1062.003906 C 2172.785156 1053.828125 2173.15625 1042.972656 2167.921875 1034.414062 Z M 2167.921875 1034.414062 "/>
<path style=" stroke:none;fill-rule:nonzero;fill:url(#linear21);" d="M 2003.417969 680.75 C 2021.832031 678.019531 2042.460938 662.539062 2042.058594 649.746094 C 2041.511719 632.164062 2001.320312 622.535156 1981.027344 617.675781 C 1960.671875 612.800781 1952.039062 614.5625 1946.210938 619 C 1940.257812 623.53125 1936.347656 631.644531 1935.070312 638.640625 C 1934.371094 642.453125 1934.335938 647.699219 1934.988281 658.152344 C 1935.566406 667.429688 1935.398438 667.023438 1935.636719 669.761719 C 1936.214844 676.34375 1938.011719 687.921875 1944.429688 703.96875 C 1947.101562 701.039062 1950.640625 697.539062 1955.109375 694.089844 C 1956.828125 692.761719 1963.628906 687.621094 1971.363281 684.507812 C 1984.640625 679.164062 1992.238281 682.402344 2003.417969 680.75 Z M 2003.417969 680.75 "/>
<path style=" stroke:none;fill-rule:nonzero;fill:url(#linear22);" d="M 1934.632812 686.085938 C 1934.632812 686.085938 1935.824219 711.738281 1959.996094 723 C 1981.640625 733.085938 2010.367188 687.894531 2002.464844 670.636719 C 1999.828125 664.882812 1991.664062 658.621094 1983.296875 656.679688 C 1978.359375 655.535156 1975.933594 656.523438 1967.898438 654.492188 C 1960.484375 652.621094 1959.042969 650.898438 1956.183594 651.476562 C 1952.601562 652.195312 1948.035156 656.269531 1944.625 672.210938 C 1942.851562 665.992188 1938.910156 661.820312 1934.644531 661.566406 C 1933.964844 661.523438 1931.992188 661.714844 1930.378906 662.75 C 1924.523438 666.503906 1925.667969 676.019531 1934.632812 686.085938 Z M 1934.632812 686.085938 "/>
</g>
</svg>
