<?xml version="1.0" encoding="UTF-8"?>
<svg xmlns="http://www.w3.org/2000/svg" xmlns:xlink="http://www.w3.org/1999/xlink" width="px" height="px" viewBox="0 0 1637 1874" version="1.1">
<g id="surface1">
<path style=" stroke:none;fill-rule:nonzero;fill:rgb(10.588235%,45.098039%,72.941176%);fill-opacity:1;" d="M 137.074219 1677.683594 L 0 3.144531 L 1637 6.507812 L 1492.058594 1677.683594 L 824.679688 1870.855469 Z M 137.074219 1677.683594 "/>
<path style=" stroke:none;fill-rule:nonzero;fill:rgb(10.980392%,53.333333%,78.039216%);fill-opacity:1;" d="M 824.679688 1709.132812 L 824.679688 162.625 L 1498.804688 164.867188 L 1378.589844 1548.53125 Z M 824.679688 1709.132812 "/>
<path style=" stroke:none;fill-rule:nonzero;fill:rgb(100%,100%,100%);fill-opacity:1;" d="M 1331.394531 360.296875 L 294.371094 360.296875 L 322.460938 562.441406 L 814.566406 562.441406 L 330.332031 770.222656 L 358.410156 965.636719 L 1071.867188 965.636719 L 1046.015625 1238.542969 L 804.453125 1285.71875 L 585.371094 1229.566406 L 568.515625 1074.574219 L 367.402344 1074.574219 L 394.359375 1396.914062 L 825.800781 1517.082031 L 1239.273438 1385.683594 L 1292.082031 755.613281 L 855.003906 755.613281 L 1331.382812 557.953125 Z M 1331.394531 360.296875 "/>
</g>
</svg>
