<?xml version="1.0" encoding="UTF-8"?>
<svg xmlns="http://www.w3.org/2000/svg" xmlns:xlink="http://www.w3.org/1999/xlink" width="px" height="px" viewBox="0 0 1875 1875" version="1.1">
<g id="surface1">
<path style=" stroke:none;fill-rule:evenodd;fill:rgb(9.803922%,40.392157%,82.352941%);fill-opacity:1;" d="M 643.175781 80.292969 C 643.175781 35.945312 679.125 0 723.472656 0 L 1157.101562 0 C 1201.449219 0 1237.398438 35.945312 1237.398438 80.292969 L 1237.398438 513.921875 C 1237.398438 558.269531 1201.453125 594.21875 1157.101562 594.21875 L 723.472656 594.21875 C 679.125 594.21875 643.175781 558.273438 643.175781 513.925781 Z M 787.71875 136.507812 L 787.71875 437.632812 L 1088.839844 437.632812 L 1088.839844 136.507812 Z M 637.15625 1875 C 554 1875 486.59375 1807.589844 486.59375 1724.441406 C 486.59375 1641.285156 554 1573.875 637.15625 1573.875 C 720.308594 1573.875 787.714844 1641.285156 787.714844 1724.441406 C 787.714844 1807.589844 720.308594 1875 637.15625 1875 Z M 1239.40625 1875 C 1156.25 1875 1088.839844 1807.589844 1088.839844 1724.441406 C 1088.839844 1641.285156 1156.25 1573.875 1239.40625 1573.875 C 1322.558594 1573.875 1389.964844 1641.285156 1389.964844 1724.441406 C 1389.964844 1807.589844 1322.554688 1875 1239.40625 1875 Z M 1239.40625 1875 "/>
<path style=" stroke:none;fill-rule:evenodd;fill:rgb(25.882353%,52.156863%,95.686275%);fill-opacity:1;" d="M 494.621094 349.304688 L 1385.949219 349.304688 C 1465.777344 349.304688 1530.492188 414.015625 1530.492188 493.84375 L 1530.492188 1573.875 C 1530.492188 1653.703125 1465.777344 1718.414062 1385.949219 1718.414062 L 494.621094 1718.414062 C 414.796875 1718.414062 350.082031 1653.703125 350.082031 1573.875 L 350.082031 493.84375 C 350.082031 414.015625 414.796875 349.304688 494.621094 349.304688 Z M 494.621094 349.304688 "/>
<path style=" stroke:none;fill-rule:evenodd;fill:rgb(98.431373%,73.72549%,1.568627%);fill-opacity:1;" d="M 350.082031 493.878906 L 350.082031 1573.839844 C 350.082031 1588.90625 352.386719 1603.429688 356.65625 1617.085938 L 940.820312 1032.921875 L 357.375 448.410156 C 352.527344 463.078125 350.066406 478.429688 350.082031 493.878906 Z M 350.082031 493.878906 "/>
<path style=" stroke:none;fill-rule:evenodd;fill:rgb(91.764706%,26.27451%,20.784314%);fill-opacity:1;" d="M 939.332031 1035.863281 L 942.273438 1032.921875 L 945.222656 1035.867188 Z M 358.832031 448.414062 C 377.890625 390.847656 432.136719 349.308594 496.058594 349.308594 L 1387.425781 349.308594 C 1451.660156 349.308594 1506.109375 391.222656 1524.917969 449.214844 L 942.273438 1031.859375 Z M 358.832031 448.414062 "/>
<path style=" stroke:none;fill-rule:evenodd;fill:rgb(20.392157%,65.882353%,32.54902%);fill-opacity:1;" d="M 938.609375 1031.851562 L 941.558594 1034.796875 L 944.5 1031.851562 Z M 358.113281 1619.3125 C 377.167969 1676.878906 431.417969 1718.414062 495.335938 1718.414062 L 1386.707031 1718.414062 C 1450.9375 1718.414062 1505.386719 1676.503906 1524.195312 1618.507812 L 941.554688 1035.867188 Z M 358.113281 1619.3125 "/>
<path style=" stroke:none;fill-rule:evenodd;fill:rgb(25.882353%,52.156863%,95.686275%);fill-opacity:1;" d="M 1229.367188 1031.851562 C 1229.367188 1191.503906 1099.941406 1320.929688 940.285156 1320.929688 C 780.632812 1320.929688 651.207031 1191.503906 651.207031 1031.851562 C 651.207031 872.195312 780.632812 742.769531 940.285156 742.769531 C 1099.941406 742.769531 1229.367188 872.195312 1229.367188 1031.851562 Z M 1229.367188 1031.851562 "/>
<path style=" stroke:none;fill-rule:nonzero;fill:rgb(100%,100%,100%);fill-opacity:1;" d="M 1286.535156 972.753906 C 1291.035156 996.804688 1293.285156 1021.21875 1293.265625 1045.6875 C 1293.265625 1244.085938 1160.210938 1385.171875 959.296875 1385.171875 C 767.082031 1385.171875 611.398438 1229.75 611.398438 1037.875 C 611.398438 845.996094 767.082031 690.578125 959.296875 690.578125 C 1053.238281 690.578125 1131.714844 725.085938 1191.957031 781.089844 L 1093.875 878.992188 L 1093.875 878.765625 C 1057.351562 844.03125 1011.042969 826.238281 959.292969 826.238281 C 844.492188 826.238281 751.210938 923.046875 751.210938 1037.664062 C 751.210938 1152.25 844.492188 1249.296875 959.292969 1249.296875 C 1063.449219 1249.296875 1134.328125 1189.816406 1148.917969 1108.207031 L 959.292969 1108.207031 L 959.292969 972.753906 Z M 1286.535156 972.753906 "/>
</g>
</svg>
