<?xml version="1.0" encoding="UTF-8"?>
<svg xmlns="http://www.w3.org/2000/svg" xmlns:xlink="http://www.w3.org/1999/xlink" width="px" height="px" viewBox="0 0 1875 1875" version="1.1">
<g id="surface1">
<rect x="0" y="0" width="1875" height="1875" style="fill:rgb(100%,100%,100%);fill-opacity:1;stroke:none;"/>
<path style=" stroke:none;fill-rule:evenodd;fill:rgb(15.294118%,42.745098%,70.588235%);fill-opacity:1;" d="M 646.875 1190.363281 C 450.726562 1272.847656 263.738281 1274.699219 230.742188 1194.027344 C 219.742188 1166.539062 228.914062 1131.714844 254.574219 1095.042969 L 291.234375 924.554688 C 107.925781 1027.214844 -2.070312 1161.023438 34.589844 1250.867188 C 78.585938 1359.003906 316.898438 1362.671875 566.207031 1258.179688 C 716.535156 1195.867188 835.695312 1109.703125 898.015625 1027.214844 C 844.855469 1085.871094 756.863281 1144.535156 646.875 1190.363281 Z M 1840.273438 618.414062 C 1798.113281 517.589844 1567.128906 513.921875 1323.316406 612.917969 C 1163.835938 677.082031 1039.171875 768.742188 984.191406 853.066406 L 987.859375 853.066406 C 1035.503906 792.5625 1129 726.574219 1244.496094 680.746094 C 1436.988281 603.753906 1620.308594 603.753906 1653.285156 682.574219 C 1669.792969 721.078125 1645.96875 770.570312 1596.457031 821.902344 L 1537.8125 952.0625 C 1746.792969 853.066406 1880.601562 710.074219 1840.273438 618.414062 Z M 1840.273438 618.414062 "/>
<path style=" stroke:none;fill-rule:evenodd;fill:rgb(50.196078%,50.588235%,51.372549%);fill-opacity:1;" d="M 843.027344 1230.699219 L 855.859375 1168.367188 L 843.027344 1168.367188 L 848.523438 1144.546875 L 861.355469 1144.546875 L 866.851562 1113.390625 L 901.683594 1113.390625 L 894.359375 1144.546875 L 910.855469 1144.546875 L 905.359375 1168.367188 L 888.863281 1168.367188 L 877.863281 1227.035156 C 876.03125 1232.539062 881.527344 1232.539062 885.1875 1232.539062 L 892.519531 1232.539062 L 888.855469 1258.191406 C 877.851562 1258.191406 870.519531 1260.027344 861.355469 1260.027344 C 848.523438 1260.027344 839.359375 1250.875 843.027344 1230.699219 Z M 936.515625 1258.191406 L 901.683594 1258.191406 L 925.515625 1144.535156 L 956.671875 1144.535156 L 954.84375 1155.539062 C 963.996094 1144.535156 971.332031 1140.871094 982.332031 1140.871094 L 975 1177.542969 C 956.664062 1177.542969 952.996094 1183.027344 949.328125 1199.542969 Z M 1028.167969 1203.203125 L 1026.339844 1217.871094 C 1024.5 1228.871094 1019.003906 1232.539062 1013.5 1232.539062 C 1008.011719 1232.539062 1006.164062 1230.699219 1008.011719 1223.367188 C 1009.84375 1217.878906 1011.679688 1214.214844 1017.167969 1210.546875 C 1020.832031 1208.699219 1024.5 1206.867188 1028.167969 1203.203125 Z M 1022.683594 1256.363281 L 1055.6875 1256.363281 C 1053.847656 1249.027344 1053.847656 1245.359375 1057.515625 1234.359375 L 1068.515625 1173.863281 C 1074.023438 1151.859375 1063.03125 1140.859375 1033.695312 1140.859375 C 1006.183594 1140.859375 989.695312 1157.347656 984.199219 1183.019531 L 1017.1875 1183.019531 L 1017.1875 1177.53125 C 1019.023438 1168.359375 1022.691406 1164.710938 1028.1875 1164.710938 C 1035.523438 1164.710938 1035.523438 1168.359375 1035.523438 1172.027344 C 1033.695312 1179.359375 1030.035156 1181.199219 1024.519531 1183.027344 L 1000.699219 1194.027344 C 986.03125 1201.363281 976.875 1212.363281 973.210938 1228.871094 C 969.542969 1252.695312 978.695312 1260.027344 995.191406 1260.027344 C 1009.863281 1260.027344 1017.195312 1254.542969 1022.703125 1247.1875 L 1022.703125 1256.363281 Z M 1079.507812 1256.363281 L 1079.507812 1142.71875 L 1116.171875 1142.71875 L 1110.664062 1199.535156 L 1108.835938 1210.535156 L 1112.503906 1199.535156 L 1134.507812 1142.71875 L 1167.503906 1142.71875 L 1119.839844 1256.363281 Z M 1215.15625 1179.359375 L 1213.328125 1181.199219 L 1196.820312 1181.199219 L 1196.820312 1179.359375 C 1200.488281 1168.359375 1204.15625 1164.710938 1209.660156 1164.710938 C 1215.15625 1164.710938 1216.996094 1166.539062 1215.15625 1179.359375 Z M 1189.503906 1258.191406 C 1209.660156 1258.191406 1231.664062 1249.035156 1239 1221.539062 L 1240.828125 1212.363281 L 1207.824219 1212.363281 L 1205.992188 1219.699219 C 1204.15625 1228.871094 1200.488281 1232.539062 1194.992188 1232.539062 C 1189.496094 1232.539062 1187.65625 1228.871094 1189.503906 1219.699219 L 1193.171875 1205.03125 L 1240.816406 1205.03125 L 1248.152344 1175.691406 C 1253.65625 1148.203125 1233.484375 1139.039062 1213.328125 1139.039062 C 1194.992188 1139.039062 1171.167969 1148.195312 1165.664062 1175.691406 L 1156.511719 1221.539062 C 1150.996094 1249.027344 1171.167969 1258.191406 1189.503906 1258.191406 Z M 1275.671875 1104.207031 L 1308.644531 1104.207031 L 1277.488281 1254.542969 L 1244.496094 1254.542969 Z M 571.714844 1076.707031 L 502.054688 1076.707031 L 536.890625 908.054688 C 540.558594 891.558594 536.890625 884.222656 524.058594 884.222656 C 511.230469 884.222656 503.894531 891.546875 500.226562 908.054688 L 465.394531 1076.707031 L 395.738281 1076.707031 L 445.230469 834.730469 L 507.5625 834.730469 L 500.226562 865.898438 C 514.894531 843.894531 544.222656 827.394531 568.054688 827.394531 C 595.554688 827.394531 619.386719 843.894531 612.054688 878.726562 Z M 784.363281 798.070312 C 762.359375 798.070312 751.359375 798.070312 747.691406 816.394531 L 744.023438 832.890625 L 777.027344 832.890625 L 766.027344 880.554688 L 734.859375 880.554688 L 694.53125 1076.707031 L 623.035156 1076.707031 L 663.363281 882.386719 L 635.875 882.386719 L 645.039062 832.890625 L 672.539062 832.890625 L 678.035156 807.222656 C 685.367188 766.890625 714.707031 746.726562 755.023438 746.726562 L 793.527344 746.726562 Z M 881.527344 805.394531 L 810.03125 805.394531 L 822.863281 746.738281 L 894.359375 746.738281 Z M 826.53125 1076.707031 L 755.035156 1076.707031 L 804.539062 832.890625 L 876.03125 832.890625 Z M 918.179688 831.0625 L 980.523438 831.0625 L 973.191406 864.058594 C 987.859375 840.226562 1017.167969 823.730469 1041.019531 823.730469 C 1068.507812 823.730469 1092.347656 840.226562 1085.015625 876.890625 L 1044.683594 1076.707031 L 975.019531 1076.707031 L 1009.84375 904.386719 C 1013.507812 889.71875 1009.84375 880.554688 995.171875 880.554688 C 982.351562 880.554688 976.855469 887.890625 973.191406 904.386719 L 938.347656 1076.707031 L 868.6875 1076.707031 Z M 1213.328125 803.566406 L 1141.832031 803.566406 L 1154.652344 744.910156 L 1226.148438 744.910156 Z M 1158.328125 1076.707031 L 1086.832031 1076.707031 L 1136.328125 831.0625 L 1207.824219 829.234375 Z M 1359.988281 876.890625 L 1321.496094 876.890625 L 1295.824219 1008.878906 C 1292.160156 1025.367188 1312.3125 1023.546875 1328.832031 1023.546875 L 1319.65625 1073.039062 C 1301.320312 1076.707031 1284.832031 1076.707031 1262.832031 1076.707031 C 1235.339844 1076.707031 1215.167969 1060.21875 1224.339844 1019.878906 L 1253.675781 876.890625 L 1226.167969 876.890625 L 1235.339844 829.226562 L 1262.832031 829.226562 L 1275.671875 761.398438 L 1345.316406 761.398438 L 1332.496094 829.226562 L 1369.167969 829.226562 Z M 1462.628906 1089.539062 C 1442.472656 1140.871094 1413.136719 1153.71875 1372.808594 1153.71875 C 1363.652344 1153.71875 1352.652344 1153.71875 1343.488281 1151.878906 L 1352.644531 1100.550781 C 1358.148438 1102.386719 1363.644531 1102.386719 1367.3125 1102.386719 C 1378.3125 1102.386719 1383.800781 1096.882812 1385.648438 1087.71875 L 1387.476562 1080.382812 L 1383.808594 829.234375 L 1455.324219 827.40625 L 1449.820312 939.230469 L 1437 1025.386719 L 1464.488281 939.230469 L 1502.976562 827.40625 L 1570.808594 827.40625 Z M 349.902344 748.574219 L 428.730469 748.574219 L 360.902344 1076.707031 L 280.246094 1076.707031 Z M 349.902344 748.574219 "/>
</g>
</svg>
