<?xml version="1.0" encoding="UTF-8"?>
<svg xmlns="http://www.w3.org/2000/svg" xmlns:xlink="http://www.w3.org/1999/xlink" width="px" height="px" viewBox="0 0 1637 1874" version="1.1">
<g id="surface1">
<path style=" stroke:none;fill-rule:nonzero;fill:rgb(91.372549%,79.215686%,19.607843%);fill-opacity:1;" d="M 137.074219 1677.699219 L 0 3.128906 L 1637 6.496094 L 1492.058594 1677.699219 L 824.679688 1870.871094 Z M 137.074219 1677.699219 "/>
<path style=" stroke:none;fill-rule:nonzero;fill:rgb(100%,87.058824%,14.509804%);fill-opacity:1;" d="M 824.679688 1709.144531 L 824.679688 162.609375 L 1498.804688 164.855469 L 1378.589844 1548.53125 Z M 824.679688 1709.144531 "/>
<path style=" stroke:none;fill-rule:nonzero;fill:rgb(100%,100%,100%);fill-opacity:1;" d="M 752.492188 346.242188 L 574.269531 346.242188 L 574.269531 1375.574219 L 435.652344 1349.183594 L 435.652344 1210.617188 L 270.632812 1184.226562 L 270.632812 1494.34375 L 752.492188 1619.710938 Z M 886.183594 346.242188 L 1379.570312 346.242188 L 1346.566406 543.53125 L 1074.53125 543.53125 L 1074.53125 867.28125 L 1346.566406 867.28125 L 1313.558594 1520.738281 L 886.183594 1619.710938 L 886.183594 1415.164062 L 1174.945312 1316.191406 L 1191.617188 1045.660156 L 886.183594 1089.871094 Z M 886.183594 346.242188 "/>
</g>
</svg>
